<?xml version="1.0" encoding="UTF-8"?>
<svg width="600" height="350" viewBox="0 0 600 350" xmlns="http://www.w3.org/2000/svg">
  <defs>
    <linearGradient id="bgGradient" x1="0%" y1="0%" x2="100%" y2="100%">
      <stop offset="0%" stop-color="#f6f8fa"/>
      <stop offset="100%" stop-color="#e1e4e8"/>
    </linearGradient>
  </defs>
  
  <!-- Background -->
  <rect x="0" y="0" width="600" height="350" rx="10" ry="10" fill="url(#bgGradient)"/>
  
  <!-- GitHub logo -->
  <g transform="translate(250, 90) scale(6)">
    <path d="M10,0.2 C4.5,0.2 0,4.7 0,10.2 C0,14.7 2.9,18.4 6.8,19.7 C7.3,19.8 7.5,19.5 7.5,19.2 C7.5,19 7.5,18.3 7.5,17.5 C4.7,18.1 4.1,16.1 4.1,16.1 C3.7,14.9 3,14.6 3,14.6 C2.1,14 3.1,14 3.1,14 C4.1,14.1 4.6,15 4.6,15 C5.5,16.5 7,16.1 7.5,15.9 C7.6,15.2 7.9,14.8 8.1,14.6 C5.9,14.3 3.6,13.5 3.6,9.6 C3.6,8.5 4,7.6 4.6,7 C4.5,6.7 4.2,5.6 4.7,4.2 C4.7,4.2 5.6,4 7.5,5.2 C8.3,5 9.2,4.9 10,4.9 C10.8,4.9 11.7,5 12.5,5.2 C14.4,4 15.3,4.2 15.3,4.2 C15.8,5.6 15.5,6.7 15.4,7 C16,7.6 16.4,8.5 16.4,9.6 C16.4,13.5 14.1,14.3 11.9,14.6 C12.2,14.9 12.5,15.6 12.5,16.6 C12.5,18 12.5,18.8 12.5,19.2 C12.5,19.5 12.7,19.8 13.2,19.7 C17.1,18.4 20,14.7 20,10.2 C20,4.7 15.5,0.2 10,0.2" fill="#24292e"/>
  </g>
  
  <!-- GitHub text -->
  <text x="300" y="240" font-family="Arial, sans-serif" font-size="36" font-weight="bold" text-anchor="middle" fill="#24292e">GitHub</text>
  <text x="300" y="280" font-family="Arial, sans-serif" font-size="18" text-anchor="middle" fill="#6a737d">Where the world builds software</text>
</svg>
